<svg xmlns="http://www.w3.org/2000/svg" width="800" height="600" viewBox="0 0 800 600" role="img" aria-label="Implementación — tu marca armada módulo a módulo">
  <rect width="800" height="600" fill="#0F1115"/>
  <g stroke="rgba(255,255,255,0.05)" stroke-width="1">
    <path d="M50 0V600"/>
    <path d="M100 0V600"/>
    <path d="M150 0V600"/>
    <path d="M200 0V600"/>
    <path d="M250 0V600"/>
    <path d="M300 0V600"/>
    <path d="M350 0V600"/>
    <path d="M400 0V600"/>
    <path d="M450 0V600"/>
    <path d="M500 0V600"/>
    <path d="M550 0V600"/>
    <path d="M600 0V600"/>
    <path d="M650 0V600"/>
    <path d="M700 0V600"/>
    <path d="M750 0V600"/>
    <path d="M0 50H800"/>
    <path d="M0 100H800"/>
    <path d="M0 150H800"/>
    <path d="M0 200H800"/>
    <path d="M0 250H800"/>
    <path d="M0 300H800"/>
    <path d="M0 350H800"/>
    <path d="M0 400H800"/>
    <path d="M0 450H800"/>
    <path d="M0 500H800"/>
    <path d="M0 550H800"/>
  </g>
  <rect x="260" y="160" width="56" height="56" fill="#171A1F" stroke="rgba(255,255,255,0.09)"/>
  <rect x="260" y="216" width="56" height="56" fill="#171A1F" stroke="rgba(255,255,255,0.09)"/>
  <rect x="260" y="272" width="56" height="56" fill="#171A1F" stroke="rgba(255,255,255,0.09)"/>
  <rect x="260" y="328" width="56" height="56" fill="#171A1F" stroke="rgba(255,255,255,0.09)"/>
  <rect x="260" y="384" width="56" height="56" fill="#171A1F" stroke="rgba(255,255,255,0.09)"/>
  <rect x="316" y="160" width="56" height="56" fill="#171A1F" stroke="rgba(255,255,255,0.09)"/>
  <rect x="316" y="216" width="56" height="56" fill="#171A1F" stroke="rgba(255,255,255,0.09)"/>
  <rect x="316" y="272" width="56" height="56" fill="#171A1F" stroke="rgba(255,255,255,0.09)"/>
  <rect x="316" y="328" width="56" height="56" fill="#171A1F" stroke="rgba(255,255,255,0.09)"/>
  <rect x="316" y="384" width="56" height="56" fill="#171A1F" stroke="rgba(255,255,255,0.09)"/>
  <rect x="372" y="160" width="56" height="56" fill="#171A1F" stroke="rgba(255,255,255,0.09)"/>
  <rect x="372" y="216" width="56" height="56" fill="#171A1F" stroke="rgba(255,255,255,0.09)"/>
  <rect x="372" y="272" width="56" height="56" fill="#171A1F" stroke="rgba(255,255,255,0.09)"/>
  <rect x="372" y="328" width="56" height="56" fill="#171A1F" stroke="rgba(255,255,255,0.09)"/>
  <rect x="372" y="384" width="56" height="56" fill="#171A1F" stroke="rgba(255,255,255,0.09)"/>
  <rect x="428" y="160" width="56" height="56" fill="#171A1F" stroke="rgba(255,255,255,0.09)"/>
  <rect x="428" y="216" width="56" height="56" fill="#171A1F" stroke="rgba(255,255,255,0.09)"/>
  <rect x="428" y="272" width="56" height="56" fill="#171A1F" stroke="rgba(255,255,255,0.09)"/>
  <rect x="428" y="328" width="56" height="56" fill="#171A1F" stroke="rgba(255,255,255,0.09)"/>
  <rect x="428" y="384" width="56" height="56" fill="#171A1F" stroke="rgba(255,255,255,0.09)"/>
  <rect x="484" y="160" width="56" height="56" fill="#171A1F" stroke="rgba(255,255,255,0.09)"/>
  <rect x="484" y="216" width="56" height="56" fill="#171A1F" stroke="rgba(255,255,255,0.09)"/>
  <rect x="484" y="272" width="56" height="56" fill="#171A1F" stroke="rgba(255,255,255,0.09)"/>
  <rect x="484" y="328" width="56" height="56" fill="#171A1F" stroke="rgba(255,255,255,0.09)"/>
  <rect x="484" y="384" width="56" height="56" fill="#171A1F" stroke="rgba(255,255,255,0.09)"/>
  <rect x="260" y="160" width="56" height="56" fill="#F2F2F0"/>
  <rect x="260" y="216" width="56" height="56" fill="#F2F2F0"/>
  <rect x="260" y="272" width="56" height="56" fill="#F2F2F0"/>
  <rect x="260" y="328" width="56" height="56" fill="#F2F2F0"/>
  <rect x="260" y="384" width="56" height="56" fill="#F2F2F0"/>
  <rect x="372" y="216" width="56" height="56" fill="#F2F2F0"/>
  <rect x="428" y="160" width="56" height="56" fill="#F2F2F0"/>
  <rect x="372" y="328" width="56" height="56" fill="#F2F2F0"/>
  <rect x="428" y="384" width="56" height="56" fill="#F2F2F0"/>
  <rect x="316" y="272" width="56" height="56" fill="#D4FF4F"/>
  <rect x="120" y="120" width="56" height="56" fill="#F2F2F0" opacity="0.18"/>
  <rect x="120" y="400" width="56" height="56" fill="#F2F2F0" opacity="0.10"/>
  <rect x="620" y="470" width="56" height="56" fill="#F2F2F0" opacity="0.14"/>
</svg>
