<svg xmlns="http://www.w3.org/2000/svg" width="800" height="600" viewBox="0 0 800 600" role="img" aria-label="Plan Inicia — tu app instalable cobrando el adelanto">
  <rect width="800" height="600" fill="#0F1115"/>
  <g stroke="rgba(255,255,255,0.05)" stroke-width="1">
    <path d="M50 0V600"/>
    <path d="M100 0V600"/>
    <path d="M150 0V600"/>
    <path d="M200 0V600"/>
    <path d="M250 0V600"/>
    <path d="M300 0V600"/>
    <path d="M350 0V600"/>
    <path d="M400 0V600"/>
    <path d="M450 0V600"/>
    <path d="M500 0V600"/>
    <path d="M550 0V600"/>
    <path d="M600 0V600"/>
    <path d="M650 0V600"/>
    <path d="M700 0V600"/>
    <path d="M750 0V600"/>
    <path d="M0 50H800"/>
    <path d="M0 100H800"/>
    <path d="M0 150H800"/>
    <path d="M0 200H800"/>
    <path d="M0 250H800"/>
    <path d="M0 300H800"/>
    <path d="M0 350H800"/>
    <path d="M0 400H800"/>
    <path d="M0 450H800"/>
    <path d="M0 500H800"/>
    <path d="M0 550H800"/>
  </g>
  <rect x="290" y="80" width="220" height="440" rx="18" fill="#171A1F" stroke="rgba(255,255,255,0.09)"/>
  <rect x="350" y="96" width="100" height="10" rx="5" fill="#23262B"/>
  <rect x="310" y="126" width="180" height="40" rx="8" fill="#23262B"/>
  <circle cx="332" cy="146" r="10" fill="#F2F2F0"/>
  <rect x="348" y="141" width="70" height="10" rx="5" fill="#9BA1A9"/>
  <rect x="310" y="180" width="180" height="150" rx="8" fill="#23262B"/>
  <rect x="322" y="192" width="156" height="84" rx="4" fill="#3D444C"/>
  <rect x="322" y="288" width="110" height="10" rx="5" fill="#C7CDD4"/>
  <rect x="322" y="306" width="70" height="10" rx="5" fill="#9BA1A9"/>
  <rect x="310" y="344" width="180" height="40" rx="8" fill="#F2F2F0"/>
  <rect x="310" y="400" width="132" height="30" rx="15" fill="#D4FF4F"/>
  <rect x="324" y="411" width="104" height="8" rx="4" fill="#2C3A00"/>
  <rect x="310" y="446" width="180" height="12" rx="6" fill="#23262B"/>
  <rect x="310" y="470" width="120" height="12" rx="6" fill="#23262B"/>
  <rect x="120" y="250" width="90" height="90" rx="16" fill="#171A1F" stroke="rgba(255,255,255,0.09)"/>
  <rect x="140" y="270" width="22" height="50" fill="#F2F2F0"/>
  <rect x="172" y="270" width="18" height="18" fill="#F2F2F0"/>
  <rect x="172" y="302" width="18" height="18" fill="#F2F2F0"/>
  <rect x="590" y="250" width="90" height="90" rx="16" fill="#171A1F" stroke="rgba(255,255,255,0.09)"/>
  <rect x="610" y="270" width="50" height="12" rx="6" fill="#23262B"/>
  <rect x="610" y="292" width="34" height="12" rx="6" fill="#23262B"/>
  <rect x="610" y="314" width="44" height="12" rx="6" fill="#23262B"/>
</svg>
