<svg xmlns="http://www.w3.org/2000/svg" width="800" height="600" viewBox="0 0 800 600" role="img" aria-label="Plan Vende — checkout de tres pasos con cobro del adelanto">
  <rect width="800" height="600" fill="#0F1115"/>
  <g stroke="rgba(255,255,255,0.05)" stroke-width="1">
    <path d="M50 0V600"/>
    <path d="M100 0V600"/>
    <path d="M150 0V600"/>
    <path d="M200 0V600"/>
    <path d="M250 0V600"/>
    <path d="M300 0V600"/>
    <path d="M350 0V600"/>
    <path d="M400 0V600"/>
    <path d="M450 0V600"/>
    <path d="M500 0V600"/>
    <path d="M550 0V600"/>
    <path d="M600 0V600"/>
    <path d="M650 0V600"/>
    <path d="M700 0V600"/>
    <path d="M750 0V600"/>
    <path d="M0 50H800"/>
    <path d="M0 100H800"/>
    <path d="M0 150H800"/>
    <path d="M0 200H800"/>
    <path d="M0 250H800"/>
    <path d="M0 300H800"/>
    <path d="M0 350H800"/>
    <path d="M0 400H800"/>
    <path d="M0 450H800"/>
    <path d="M0 500H800"/>
    <path d="M0 550H800"/>
  </g>
  <rect x="180" y="100" width="440" height="400" rx="14" fill="#171A1F" stroke="rgba(255,255,255,0.09)"/>
  <rect x="210" y="132" width="120" height="8" rx="4" fill="#F2F2F0"/>
  <rect x="346" y="132" width="120" height="8" rx="4" fill="#F2F2F0"/>
  <rect x="482" y="132" width="108" height="8" rx="4" fill="#D4FF4F"/>
  <rect x="210" y="172" width="380" height="52" rx="8" fill="#23262B"/>
  <rect x="226" y="192" width="130" height="12" rx="6" fill="#9BA1A9"/>
  <rect x="210" y="240" width="380" height="52" rx="8" fill="#23262B"/>
  <rect x="226" y="260" width="190" height="12" rx="6" fill="#9BA1A9"/>
  <rect x="210" y="308" width="182" height="52" rx="8" fill="#23262B"/>
  <rect x="226" y="328" width="90" height="12" rx="6" fill="#9BA1A9"/>
  <rect x="408" y="308" width="182" height="52" rx="8" fill="#23262B"/>
  <rect x="424" y="328" width="110" height="12" rx="6" fill="#9BA1A9"/>
  <rect x="210" y="376" width="380" height="64" rx="8" fill="#23262B"/>
  <rect x="226" y="396" width="120" height="12" rx="6" fill="#9BA1A9"/>
  <rect x="226" y="416" width="76" height="10" rx="5" fill="#C7CDD4"/>
  <rect x="470" y="394" width="104" height="28" rx="6" fill="#F2F2F0"/>
  <rect x="210" y="456" width="380" height="24" rx="8" fill="#F2F2F0"/>
</svg>
